<svg width="64" height="18" viewBox="0 0 64 18" fill="none" xmlns="http://www.w3.org/2000/svg">
  <defs>
    <linearGradient id="mistyWave" x1="0" y1="9" x2="64" y2="9" gradientUnits="userSpaceOnUse">
      <stop stop-color="#D9E3F0" stop-opacity="0.65" />
      <stop offset="0.5" stop-color="#C2D0E1" stop-opacity="0.5" />
      <stop offset="1" stop-color="#D9E3F0" stop-opacity="0.65" />
    </linearGradient>
    <linearGradient id="coolHighlight" x1="0" y1="6" x2="64" y2="6" gradientUnits="userSpaceOnUse">
      <stop stop-color="#C1D4E8" stop-opacity="0.5" />
      <stop offset="0.5" stop-color="#AFC2D8" stop-opacity="0.35" />
      <stop offset="1" stop-color="#C1D4E8" stop-opacity="0.5" />
    </linearGradient>
  </defs>
  <path d="M0 10c6-4 12-4 18 0s12 4 18 0 12-4 18 0 12 4 18 0v1c-6 4-12 4-18 0s-12-4-18 0-12 4-18 0-12-4-18 0V10Z" fill="url(#mistyWave)" />
  <path d="M0 7.5c5-3 11-3 16 0s11 3 16 0 11-3 16 0 11 3 16 0v1c-5 3-11 3-16 0s-11-3-16 0-11 3-16 0-11-3-16 0v-1Z" fill="url(#coolHighlight)" />
  <path d="M-2 12c7-5 16-5 23 0s16 5 23 0 16-5 23 0v1c-7 5-16 5-23 0s-16-5-23 0-16 5-23 0v-1Z" fill="#9FB3C9" fill-opacity="0.25" />
</svg>
