<svg xmlns="http://www.w3.org/2000/svg" width="46" height="14" viewBox="0 0 46 14" fill="none" aria-hidden="true">
  <defs>
    <linearGradient id="flameBody" x1="46" y1="7" x2="0" y2="7" gradientUnits="userSpaceOnUse">
      <stop offset="0%" stop-color="#FF9A2E"/>
      <stop offset="50%" stop-color="#FF7A00"/>
      <stop offset="100%" stop-color="#F25D00"/>
    </linearGradient>
    <linearGradient id="flameCore" x1="42" y1="7" x2="12" y2="7" gradientUnits="userSpaceOnUse">
      <stop offset="0%" stop-color="#FFE9B8"/>
      <stop offset="100%" stop-color="#FFC861"/>
    </linearGradient>
  </defs>
  <path d="M46 7c-1.2-4-7.4-7-15.3-7C17 0 6.8 4.5 2.4 9.3c-.9 1-.6 2.7.6 3.3C13.4 16 27.3 15 37.5 12c5.2-1.6 8.2-3 8.5-5Z" fill="url(#flameBody)"/>
  <path d="M40.5 7c-.8-2.6-5.6-4.5-11-4.5C20.7 2.5 14 5.3 10.4 8.8c-.8.7-.6 2 .4 2.4 7.6 2.6 16.6 2 23.6 0 3.7-1 6-1.8 6.1-3.2Z" fill="url(#flameCore)"/>
  <path d="M12 7.2c-.6-.8-3.2-1.5-5.1-.7-1 .4-1.4 1.5-1 2.4.8 1.7 4.1 2 6.6 1.5 1.5-.3 2.4-1.6 1.6-2.7-.5-.7-1.3-1-2.1-1-0.1 0-0.2 0-0.3 0Z" fill="#FFF2D8" opacity=".9"/>
</svg>
